# AST/ASF file generated using VICON BodyLanguage
# -----------------------------------------------
:version 1.10
:name VICON
:units
  mass 1.0
  length 0.45
  angle deg
:documentation
   .ast/.asf automatically generated from VICON data using
   VICON BodyBuilder and BodyLanguage model FoxedUp or BRILLIANT.MOD
:root
   order TX TY TZ RX RY RZ
   axis XYZ
   position 0 0 0  
   orientation 0 0 0 
:bonedata
  begin
     id 1 
     name lhipjoint
     direction 0.682418 -0.694059 0.22932 
     length 2.25561 
     axis 0 0 0  XYZ
  end
  begin
     id 2 
     name lfemur
     direction 0.34202 -0.939693 0  
     length 6.96448  
     axis 0 0 20  XYZ
    dof rx ry rz
    limits (-160.0 20.0)
           (-70.0 70.0)
           (-60.0 70.0)
  end
  begin
     id 3 
     name ltibia
     direction 0.34202 -0.939693 0   
     length 6.88553   
     axis 0 0 20   XYZ
    dof rx
    limits (-10.0 170.0)
  end
  begin
     id 4 
     name lfoot
     direction 0.0723587 -0.198804 0.977364   
     length 1.88518   
     axis -90 7.62852e-016 20   XYZ
    dof rx rz
    limits (-45.0 90.0)
           (-70.0 20.0)
  end
  begin
     id 5 
     name ltoes
     direction 1.53558e-011 -4.21962e-011 1   
     length 0.952124   
     axis -90 7.62852e-016 20   XYZ
    dof rx
    limits (-90.0 20.0)
  end
  begin
     id 6 
     name rhipjoint
     direction -0.657603 -0.71533 0.236348   
     length 2.18854  
     axis 0 0 0  XYZ 
  end
  begin
     id 7 
     name rfemur
     direction -0.34202 -0.939693 0   
     length 6.86686   
     axis 0 0 -20   XYZ
    dof rx ry rz
    limits (-160.0 20.0)
           (-70.0 70.0)
           (-70.0 60.0)
  end
  begin
     id 8 
     name rtibia
     direction -0.34202 -0.939693 0   
     length 6.59503   
     axis 0 0 -20   XYZ
    dof rx
    limits (-10.0 170.0)
 end
 begin
     id 9 
     name rfoot
     direction -0.101977 -0.280179 0.954516   
     length 1.93723  
     axis -90 -7.62852e-016 -20   XYZ
    dof rx rz
    limits (-45.0 90.0)
           (-20.0 70.0)
  end
  begin
     id 10 
     name rtoes
     direction -1.53564e-011 -4.21897e-011 1   
     length 0.970315   
     axis -90 -7.62852e-016 -20   XYZ
    dof rx
    limits (-90.0 20.0)
  end
  begin
     id 11 
     name lowerback
     direction -0.0339559 0.999421 -0.00235966   
     length 1.88543   
     axis 0 0 0   XYZ
    dof rx ry rz
    limits (-20.0 45.0)
           (-30.0 30.0)
           (-30.0 30.0)
  end
  begin
     id 12 
     name upperback
     direction 0.00401003 0.999739 0.0224689   
     length 1.8856   
     axis 0 0 0   XYZ
    dof rx ry rz
    limits (-20.0 45.0)
           (-30.0 30.0)
           (-30.0 30.0)
  end
  begin
     id 13 
     name thorax
     direction 0.0198619 0.999546 0.0226536   
     length 1.88352   
     axis 0 0 0   XYZ
    dof rx ry rz
    limits (-20.0 45.0)
           (-30.0 30.0)
           (-30.0 30.0)
  end
  begin
     id 14 
     name lowerneck
     direction -0.0461848 0.998632 0.0245198   
     length 1.34895   
     axis 0 0 0   XYZ
    dof rx ry rz
    limits (-20.0 45.0)
           (-30.0 30.0)
           (-30.0 30.0)
  end
  begin
     id 15 
     name upperneck
     direction -0.0180627 0.994724 -0.100984   
     length 1.35214   
     axis 0 0 0   XYZ
    dof rx ry rz
    limits (-20.0 45.0)
           (-30.0 30.0)
           (-30.0 30.0)
  end
  begin
     id 16
     name head
     direction -0.00374772 0.999293 -0.037403  
     length 1.3568  
     axis 0 0 0   XYZ
    dof rx ry rz
    limits (-20.0 45.0)
           (-30.0 30.0)
           (-30.0 30.0)
  end
  begin
     id 17 
     name lclavicle
     direction 0.971773 0.191119 0.138311  
     length 2.84954  
     axis 0 0 0   XYZ
    dof ry rz
    limits (-20.0 10.0)
           (0.0 20.0)
  end
  begin
     id 18 
     name lhumerus
     direction 1 -4.4897e-011 -2.43761e-027   
     length 4.40919   
     axis 180 -30 -90   XYZ
    dof rx ry rz
    limits (-60.0 90.0)
           (-90.0 90.0)
           (-90.0 90.0)
  end
  begin
     id 19
     name lradius
     direction 1 -4.4896e-011 -9.1621e-027   
     length 3.03857   
     axis 180 -30 -90   XYZ
    dof rx
    limits (-10.0 170.0)
  end
  begin
     id 20
     name lwrist
     direction 1 -4.4896e-011 -1.41363e-026   
     length 1.51928   
     axis 1.07133e-014 90 90   XYZ
    dof ry
    limits (-180.0 0.0)
 end
  begin
     id 21 
     name lhand
     direction 1 -4.48978e-011 -2.82725e-026   
     length 0.523208   
     axis 1.80403e-014 90 90   XYZ
    dof rx rz
    limits (-90.0 90.0)
           (-45.0 45.0)
  end
  begin
     id 22 
     name lfingers
     direction 1 -4.48977e-011 -5.6545e-026   
     length 0.421824   
     axis 3.60806e-014 90 90   XYZ
    dof rx
    limits (0.0 90.0)
  end
  begin
     id 23
     name lthumb
     direction 0.707107 -6.34962e-011 0.707107   
     length 0.605657   
     axis -90 45 2.85299e-015   XYZ
    dof rx rz
    limits (-45.0 45.0)
           (-45.0 45.0)
  end
  begin
     id 24 
     name rclavicle
     direction -0.957247 0.24311 0.156766   
     length 3.12406  
     axis 0 0 0   XYZ 
    dof ry rz
    limits (-10.0 20.0)
           (-20.0 0.0)
  end
  begin
     id 25 
     name rhumerus
     direction -1 -4.48964e-011 -1.70632e-027  
     length 4.61969   
     axis 180 30 90   XYZ
    dof rx ry rz
    limits (-90.0 60.0)
           (-90.0 90.0)
           (-90.0 90.0)
  end
  begin
     id 26 
     name rradius
     direction -1 -4.48966e-011 -6.60395e-027   
     length 3.09382   
     axis 180 30 90   XYZ
    dof rx
    limits (-10.0 170.0)
  end
  begin
     id 27 
     name rwrist
     direction -1 -4.48963e-011 -1.41363e-026   
     length 1.54691   
     axis 1.07133e-014 -90 -90   XYZ
    dof ry
    limits (-180.0 0.0)
  end
  begin
     id 28
     name rhand
     direction -1 -4.49013e-011 -2.82725e-026   
     length 0.500896   
     axis 1.80403e-014 -90 -90   XYZ
    dof rx rz
    limits (-90.0 90.0)
           (-45.0 45.0)
  end
  begin
     id 29
     name rfingers
     direction -1 -4.48902e-011 -5.6545e-026   
     length 0.403835   
     axis 3.60806e-014 -90 -90   XYZ
    dof rx
    limits (0.0 90.0)
  end
  begin
     id 30
     name rthumb
     direction -0.707107 -6.34953e-011 0.707107   
     length 0.579829   
     axis -90 -45 -2.85299e-015   XYZ
    dof rx rz
    limits (-45.0 45.0)
           (-45.0 45.0)
  end
:hierarchy
  begin
    root lhipjoint rhipjoint lowerback
    lhipjoint lfemur
    lfemur ltibia
    ltibia lfoot
    lfoot ltoes
    rhipjoint rfemur
    rfemur rtibia
    rtibia rfoot
    rfoot rtoes
    lowerback upperback
    upperback thorax
    thorax lowerneck lclavicle rclavicle
    lowerneck upperneck
    upperneck head
    lclavicle lhumerus
    lhumerus lradius
    lradius lwrist
    lwrist lhand lthumb
    lhand lfingers
    rclavicle rhumerus
    rhumerus rradius
    rradius rwrist
    rwrist rhand rthumb
    rhand rfingers
  end

#!OML:ASF E:\madness\Project 1\Capture day 1\Session 1\Female1.ASF
:FULLY-SPECIFIED
:DEGREES
109
root 7.27607 15.4983 1.97864 -179.618 -69.2722 194.375
lowerback 17.6042 -0.721509 -6.19916
upperback 4.49522 -2.22714 2.14501
thorax -4.6972 -1.18476 6.30861
lowerneck -7.44866 -3.31554 -4.12018
upperneck 21.2134 -4.55834 0.117153
head 7.86482 -2.67264 0.293475
rclavicle -5.56597e-015 -4.37326e-014
rhumerus -37.0725 -4.23068 -33.7419
rradius 143.498
rwrist -10.0641
rhand -17.5136 -32.5275
rfingers 7.12502
rthumb 8.73969 -62.3266
lclavicle -5.56597e-015 -4.37326e-014
lhumerus -29.3898 -8.52011 55.4375
lradius 123.9
lwrist 4.96154
lhand -42.7405 -17.8796
lfingers 7.12502
lthumb -15.6085 11.5107
rfemur -41.2406 22.1148 4.42421
rtibia 30.9584
rfoot -10.8955 -5.22377
rtoes -10.9633
lfemur -35.2944 -3.82208 -15.9289
ltibia 50.6513
lfoot -20.7808 18.6125
ltoes -3.90128
110
root 7.29351 15.4852 2.02613 -179.617 -68.9933 194.179
lowerback 18.1617 -0.634524 -6.11871
upperback 4.66985 -2.14377 2.29674
thorax -4.81618 -1.15498 6.43233
lowerneck -7.30829 -3.54473 -4.36075
upperneck 20.741 -4.82737 0.172336
head 7.69772 -2.80076 0.336169
rclavicle -1.86858e-014 1.11319e-014
rhumerus -35.426 -2.98301 -33.3294
rradius 143.315
rwrist -10.2529
rhand -17.2129 -32.9618
rfingers 7.12502
rthumb 9.02994 -62.7485
lclavicle -1.86858e-014 1.11319e-014
lhumerus -30.4157 -9.19323 55.7375
lradius 123.153
lwrist 5.68075
lhand -42.0164 -17.6245
lfingers 7.12502
lthumb -14.911 11.8189
rfemur -41.1569 22.4066 4.18867
rtibia 30.7253
rfoot -10.9173 -5.24747
rtoes -11.6378
lfemur -35.3254 -3.57077 -16.1786
ltibia 50.9175
lfoot -20.8672 18.5515
ltoes -3.30316
111
root 7.3107 15.4743 2.07621 -179.652 -68.7955 194.191
lowerback 18.5464 -0.580957 -5.81438
upperback 4.82661 -2.0506 2.41492
thorax -4.87362 -1.12244 6.37989
lowerneck -7.38699 -3.76887 -3.95285
upperneck 20.5396 -5.03359 -0.556079
head 7.62031 -2.92569 0.0142553
rclavicle 1.82882e-014 -1.74931e-014
rhumerus -33.8944 -1.87104 -32.562
rradius 143.143
rwrist -10.6548
rhand -16.7542 -33.204
rfingers 7.12502
rthumb 9.4725 -62.9711
lclavicle 1.82882e-014 -1.74931e-014
lhumerus -31.4649 -9.68407 55.8209
lradius 122.632
lwrist 6.04257
lhand -41.4657 -17.5874
lfingers 7.12502
lthumb -14.3803 11.8945
rfemur -41.2907 22.7118 3.8589
rtibia 30.5109
rfoot -10.5918 -5.48861
rtoes -11.4292
lfemur -35.5339 -3.46789 -16.3505
ltibia 51.206
lfoot -20.7382 18.7356
ltoes -3.15788
112
root 7.32821 15.4638 2.12792 -179.765 -68.631 194.274
lowerback 18.9318 -0.573551 -5.51588
upperback 5.04289 -2.01916 2.59269
thorax -4.85409 -1.12772 6.4068
lowerneck -7.57051 -3.9521 -4.05858
upperneck 20.2844 -5.20699 -0.722022
head 7.57175 -3.01973 -0.0379014
rclavicle 1.51076e-014 -5.32743e-014
rhumerus -32.0007 -0.850982 -31.4833
rradius 142.896
rwrist -11.3138
rhand -16.571 -33.4413
rfingers 7.12502
rthumb 9.64927 -63.2003
lclavicle 1.51076e-014 -5.32743e-014
lhumerus -32.5407 -9.6189 55.7105
lradius 122.217
lwrist 5.95949
lhand -40.869 -17.9267
lfingers 7.12502
lthumb -13.8054 11.5953
rfemur -41.4453 23.0095 3.51319
rtibia 30.3408
rfoot -10.2723 -5.75632
rtoes -11.0178
lfemur -35.7555 -3.52734 -16.4783
ltibia 51.5428
lfoot -20.6842 19.0441
ltoes -3.11993
113
root 7.34949 15.445 2.18075 -179.594 -68.5436 194.218
lowerback 19.2175 -0.617127 -5.27579
upperback 5.26324 -2.05885 2.76657
thorax -4.7638 -1.16997 6.4738
lowerneck -7.62882 -4.07673 -4.32778
upperneck 19.6727 -5.3399 -0.482412
head 7.3989 -3.06159 0.0810947
rclavicle 2.26615e-014 -6.20208e-014
rhumerus -29.7554 0.0233162 -30.0807
rradius 142.613
rwrist -12.3662
rhand -16.7036 -33.9438
rfingers 7.12502
rthumb 9.52136 -63.7087
lclavicle 2.26615e-014 -6.20208e-014
lhumerus -33.4659 -9.19736 55.4254
lradius 121.737
lwrist 5.84054
lhand -40.0577 -18.8594
lfingers 7.12502
lthumb -13.0234 10.714
rfemur -41.7934 23.0881 3.06142
rtibia 30.2008
rfoot -9.98474 -5.86297
rtoes -11.0548
lfemur -36.2613 -3.56088 -16.6405
ltibia 51.9206
lfoot -20.7844 19.0475
ltoes -2.57845
